<?xml version="1.0" standalone="no"?>
<!DOCTYPE svg PUBLIC "-//W3C//DTD SVG 20010904//EN"
 "http://www.w3.org/TR/2001/REC-SVG-20010904/DTD/svg10.dtd">
<svg version="1.0" xmlns="http://www.w3.org/2000/svg"
 width="152.000000pt" height="82.000000pt" viewBox="0 0 152.000000 82.000000"
 preserveAspectRatio="xMidYMid meet">

<g transform="translate(0.000000,82.000000) scale(0.100000,-0.100000)"
fill="#000000" stroke="none">
<path d="M100 580 c0 -18 7 -20 70 -20 39 0 70 -3 70 -6 0 -3 -31 -46 -70 -94
-38 -48 -70 -97 -70 -109 0 -20 5 -21 100 -21 93 0 100 1 100 20 0 18 -7 20
-70 20 -38 0 -70 2 -70 5 0 3 32 44 70 91 43 53 70 96 70 110 0 24 -1 24 -100
24 -93 0 -100 -1 -100 -20z"/>
<path d="M390 465 l0 -135 90 0 c83 0 90 1 90 20 0 18 -7 20 -71 20 l-70 0 3
38 3 37 63 3 c45 2 62 7 62 17 0 10 -17 15 -62 17 l-63 3 0 35 0 35 68 3 c58
2 68 6 65 20 -3 14 -18 17 -91 20 l-87 3 0 -136z"/>
<path d="M660 466 l0 -136 25 0 c24 0 25 3 25 55 0 48 2 55 20 55 15 0 28 -16
47 -55 24 -48 31 -55 56 -55 l28 0 -32 56 -32 56 28 22 c35 28 38 77 7 108
-16 16 -37 22 -96 26 l-76 5 0 -137z m131 84 c44 -24 11 -70 -50 -70 -29 0
-31 2 -31 40 0 38 2 40 31 40 17 0 39 -5 50 -10z"/>
<path d="M112 238 c-15 -15 -15 -61 0 -76 14 -14 64 -16 73 -2 4 6 -5 7 -24 4
-23 -5 -32 -2 -40 15 -17 31 3 64 35 58 13 -2 24 0 24 4 0 13 -54 11 -68 -3z"/>
<path d="M263 200 c0 -30 2 -43 4 -27 3 21 10 27 29 27 19 0 24 -5 24 -25 0
-14 5 -25 10 -25 6 0 10 23 10 50 0 28 -4 50 -10 50 -5 0 -10 -9 -10 -20 0
-30 -47 -28 -53 3 -2 12 -4 -3 -4 -33z"/>
<path d="M420 200 c0 -50 0 -50 33 -49 29 1 30 2 7 8 -14 4 -25 13 -25 21 0 8
11 17 25 21 l25 7 -27 1 c-17 1 -28 7 -28 15 0 8 12 17 28 19 25 4 25 4 -5 6
l-33 1 0 -50z"/>
<path d="M569 204 c-21 -49 -20 -65 1 -39 16 19 34 19 50 0 25 -30 28 -14 7
35 -11 28 -25 50 -29 50 -5 0 -18 -21 -29 -46z m41 -5 c0 -5 -7 -9 -15 -9 -9
0 -12 6 -9 15 6 15 24 11 24 -6z"/>
<path d="M705 241 c14 -6 22 -21 26 -52 l6 -44 1 47 c2 35 6 48 20 51 9 3 -3
5 -28 5 -31 0 -39 -2 -25 -7z"/>
<path d="M840 200 c0 -27 5 -50 10 -50 6 0 10 23 10 50 0 28 -4 50 -10 50 -5
0 -10 -22 -10 -50z"/>
<path d="M930 200 c0 -58 17 -68 22 -12 l3 37 23 -37 c13 -21 28 -38 33 -38 5
0 8 24 8 53 -2 51 -2 52 -8 12 l-7 -40 -23 38 c-33 53 -51 49 -51 -13z"/>
<path d="M1107 229 c-28 -39 1 -83 50 -77 22 2 29 9 31 31 3 22 -1 27 -19 27
-18 0 -20 -3 -11 -12 18 -18 14 -38 -8 -38 -28 0 -48 44 -30 66 8 9 23 14 37
11 13 -2 23 0 23 4 0 18 -59 9 -73 -12z"/>
</g>
</svg>
